<?xml version="1.0" encoding="UTF-8" standalone="no"?>
<!DOCTYPE svg PUBLIC "-//W3C//DTD SVG 1.1//EN"
 "http://www.w3.org/Graphics/SVG/1.1/DTD/svg11.dtd">
<!-- Generated by graphviz version 14.1.5 (0)
 -->
<!-- Pages: 1 -->
<svg width="3582pt" height="6288pt"
 viewBox="0.00 0.00 3582.00 6288.00" xmlns="http://www.w3.org/2000/svg" xmlns:xlink="http://www.w3.org/1999/xlink">
<g id="graph0" class="graph" transform="scale(4.16667 4.16667) rotate(0) translate(4 1505.23)">
<polygon fill="white" stroke="none" points="-4,4 -4,-1505.23 855.68,-1505.23 855.68,4 -4,4"/>
<!-- 139639617064464 -->
<g id="node1" class="node">
<title>139639617064464</title>
<path fill="#f8f9fa" stroke="black" d="M509.81,-1501.23C509.81,-1501.23 360.86,-1501.23 360.86,-1501.23 354.86,-1501.23 348.86,-1495.23 348.86,-1489.23 348.86,-1489.23 348.86,-1439.88 348.86,-1439.88 348.86,-1433.88 354.86,-1427.88 360.86,-1427.88 360.86,-1427.88 509.81,-1427.88 509.81,-1427.88 515.81,-1427.88 521.81,-1433.88 521.81,-1439.88 521.81,-1439.88 521.81,-1489.23 521.81,-1489.23 521.81,-1495.23 515.81,-1501.23 509.81,-1501.23"/>
<text xml:space="preserve" text-anchor="middle" x="435.34" y="-1477.13" font-family="Helvetica,sans-Serif" font-size="14.00">ADD &lt;= 24.50</text>
<text xml:space="preserve" text-anchor="middle" x="435.34" y="-1459.88" font-family="Helvetica,sans-Serif" font-size="14.00">Samples: 221</text>
<text xml:space="preserve" text-anchor="middle" x="435.34" y="-1442.63" font-family="Helvetica,sans-Serif" font-size="14.00">Gain Ratio: 0.2934</text>
</g>
<!-- 139639617061104 -->
<g id="node2" class="node">
<title>139639617061104</title>
<ellipse fill="#ffcccb" stroke="black" cx="391.34" cy="-1275.76" rx="114.34" ry="51.87"/>
<text xml:space="preserve" text-anchor="middle" x="391.34" y="-1288.34" font-family="Helvetica,sans-Serif" font-size="14.00">Class: At&#45;Risk</text>
<text xml:space="preserve" text-anchor="middle" x="391.34" y="-1271.09" font-family="Helvetica,sans-Serif" font-size="14.00">Samples: 38</text>
<text xml:space="preserve" text-anchor="middle" x="391.34" y="-1253.84" font-family="Helvetica,sans-Serif" font-size="14.00">Dist: [0: 4, 1: 34]</text>
</g>
<!-- 139639617064464&#45;&gt;139639617061104 -->
<g id="edge1" class="edge">
<title>139639617064464&#45;&gt;139639617061104</title>
<path fill="none" stroke="black" stroke-width="1.2" d="M426.86,-1427.54C420.95,-1402.46 412.92,-1368.36 405.98,-1338.93"/>
<polygon fill="black" stroke="black" stroke-width="1.2" points="409.41,-1338.19 403.71,-1329.26 402.59,-1339.8 409.41,-1338.19"/>
<text xml:space="preserve" text-anchor="middle" x="428.72" y="-1373.48" font-family="Helvetica,sans-Serif" font-size="12.00">True</text>
</g>
<!-- 139639617074384 -->
<g id="node3" class="node">
<title>139639617074384</title>
<path fill="#f8f9fa" stroke="black" d="M724.81,-1312.44C724.81,-1312.44 575.86,-1312.44 575.86,-1312.44 569.86,-1312.44 563.86,-1306.44 563.86,-1300.44 563.86,-1300.44 563.86,-1251.09 563.86,-1251.09 563.86,-1245.09 569.86,-1239.09 575.86,-1239.09 575.86,-1239.09 724.81,-1239.09 724.81,-1239.09 730.81,-1239.09 736.81,-1245.09 736.81,-1251.09 736.81,-1251.09 736.81,-1300.44 736.81,-1300.44 736.81,-1306.44 730.81,-1312.44 724.81,-1312.44"/>
<text xml:space="preserve" text-anchor="middle" x="650.34" y="-1288.34" font-family="Helvetica,sans-Serif" font-size="14.00">NS &lt;= 17.50</text>
<text xml:space="preserve" text-anchor="middle" x="650.34" y="-1271.09" font-family="Helvetica,sans-Serif" font-size="14.00">Samples: 183</text>
<text xml:space="preserve" text-anchor="middle" x="650.34" y="-1253.84" font-family="Helvetica,sans-Serif" font-size="14.00">Gain Ratio: 0.1791</text>
</g>
<!-- 139639617064464&#45;&gt;139639617074384 -->
<g id="edge2" class="edge">
<title>139639617064464&#45;&gt;139639617074384</title>
<path fill="none" stroke="black" stroke-width="1.2" d="M476.79,-1427.54C512.04,-1396.92 562.75,-1352.86 600.26,-1320.27"/>
<polygon fill="black" stroke="black" stroke-width="1.2" points="602.39,-1323.06 607.64,-1313.86 597.8,-1317.77 602.39,-1323.06"/>
<text xml:space="preserve" text-anchor="middle" x="551.02" y="-1373.48" font-family="Helvetica,sans-Serif" font-size="12.00">False</text>
</g>
<!-- 139639620314256 -->
<g id="node4" class="node">
<title>139639620314256</title>
<path fill="#f8f9fa" stroke="black" d="M552.81,-1108.45C552.81,-1108.45 403.86,-1108.45 403.86,-1108.45 397.86,-1108.45 391.86,-1102.45 391.86,-1096.45 391.86,-1096.45 391.86,-1047.1 391.86,-1047.1 391.86,-1041.1 397.86,-1035.1 403.86,-1035.1 403.86,-1035.1 552.81,-1035.1 552.81,-1035.1 558.81,-1035.1 564.81,-1041.1 564.81,-1047.1 564.81,-1047.1 564.81,-1096.45 564.81,-1096.45 564.81,-1102.45 558.81,-1108.45 552.81,-1108.45"/>
<text xml:space="preserve" text-anchor="middle" x="478.34" y="-1084.35" font-family="Helvetica,sans-Serif" font-size="14.00">SUB &lt;= 43.50</text>
<text xml:space="preserve" text-anchor="middle" x="478.34" y="-1067.1" font-family="Helvetica,sans-Serif" font-size="14.00">Samples: 110</text>
<text xml:space="preserve" text-anchor="middle" x="478.34" y="-1049.85" font-family="Helvetica,sans-Serif" font-size="14.00">Gain Ratio: 0.0931</text>
</g>
<!-- 139639617074384&#45;&gt;139639620314256 -->
<g id="edge3" class="edge">
<title>139639617074384&#45;&gt;139639620314256</title>
<path fill="none" stroke="black" stroke-width="1.2" d="M619.59,-1238.65C590.82,-1204.86 547.74,-1154.27 516.72,-1117.85"/>
<polygon fill="black" stroke="black" stroke-width="1.2" points="519.44,-1115.64 510.29,-1110.3 514.11,-1120.18 519.44,-1115.64"/>
<text xml:space="preserve" text-anchor="middle" x="582.25" y="-1169.5" font-family="Helvetica,sans-Serif" font-size="12.00">True</text>
</g>
<!-- 139639617074864 -->
<g id="node15" class="node">
<title>139639617074864</title>
<ellipse fill="#d4edda" stroke="black" cx="737.34" cy="-1071.78" rx="114.34" ry="51.87"/>
<text xml:space="preserve" text-anchor="middle" x="737.34" y="-1084.35" font-family="Helvetica,sans-Serif" font-size="14.00">Class: Typical</text>
<text xml:space="preserve" text-anchor="middle" x="737.34" y="-1067.1" font-family="Helvetica,sans-Serif" font-size="14.00">Samples: 73</text>
<text xml:space="preserve" text-anchor="middle" x="737.34" y="-1049.85" font-family="Helvetica,sans-Serif" font-size="14.00">Dist: [0: 72, 1: 1]</text>
</g>
<!-- 139639617074384&#45;&gt;139639617074864 -->
<g id="edge14" class="edge">
<title>139639617074384&#45;&gt;139639617074864</title>
<path fill="none" stroke="black" stroke-width="1.2" d="M665.89,-1238.65C678.42,-1209.57 696.3,-1168.05 711.05,-1133.82"/>
<polygon fill="black" stroke="black" stroke-width="1.2" points="714.25,-1135.23 714.99,-1124.66 707.82,-1132.46 714.25,-1135.23"/>
<text xml:space="preserve" text-anchor="middle" x="711.07" y="-1169.5" font-family="Helvetica,sans-Serif" font-size="12.00">False</text>
</g>
<!-- 139639620306096 -->
<g id="node5" class="node">
<title>139639620306096</title>
<path fill="#f8f9fa" stroke="black" d="M423.81,-904.47C423.81,-904.47 274.86,-904.47 274.86,-904.47 268.86,-904.47 262.86,-898.47 262.86,-892.47 262.86,-892.47 262.86,-843.12 262.86,-843.12 262.86,-837.12 268.86,-831.12 274.86,-831.12 274.86,-831.12 423.81,-831.12 423.81,-831.12 429.81,-831.12 435.81,-837.12 435.81,-843.12 435.81,-843.12 435.81,-892.47 435.81,-892.47 435.81,-898.47 429.81,-904.47 423.81,-904.47"/>
<text xml:space="preserve" text-anchor="middle" x="349.34" y="-880.37" font-family="Helvetica,sans-Serif" font-size="14.00">DM &lt;= 3165.96</text>
<text xml:space="preserve" text-anchor="middle" x="349.34" y="-863.12" font-family="Helvetica,sans-Serif" font-size="14.00">Samples: 97</text>
<text xml:space="preserve" text-anchor="middle" x="349.34" y="-845.87" font-family="Helvetica,sans-Serif" font-size="14.00">Gain Ratio: 0.0977</text>
</g>
<!-- 139639620314256&#45;&gt;139639620306096 -->
<g id="edge4" class="edge">
<title>139639620314256&#45;&gt;139639620306096</title>
<path fill="none" stroke="black" stroke-width="1.2" d="M455.28,-1034.67C433.88,-1001.17 401.93,-951.15 378.72,-914.8"/>
<polygon fill="black" stroke="black" stroke-width="1.2" points="381.73,-913.01 373.4,-906.46 375.83,-916.78 381.73,-913.01"/>
<text xml:space="preserve" text-anchor="middle" x="430.46" y="-965.51" font-family="Helvetica,sans-Serif" font-size="12.00">True</text>
</g>
<!-- 139639617062544 -->
<g id="node14" class="node">
<title>139639617062544</title>
<ellipse fill="#d4edda" stroke="black" cx="608.34" cy="-867.8" rx="114.34" ry="51.87"/>
<text xml:space="preserve" text-anchor="middle" x="608.34" y="-880.37" font-family="Helvetica,sans-Serif" font-size="14.00">Class: Typical</text>
<text xml:space="preserve" text-anchor="middle" x="608.34" y="-863.12" font-family="Helvetica,sans-Serif" font-size="14.00">Samples: 13</text>
<text xml:space="preserve" text-anchor="middle" x="608.34" y="-845.87" font-family="Helvetica,sans-Serif" font-size="14.00">Dist: [0: 12, 1: 1]</text>
</g>
<!-- 139639620314256&#45;&gt;139639617062544 -->
<g id="edge13" class="edge">
<title>139639620314256&#45;&gt;139639617062544</title>
<path fill="none" stroke="black" stroke-width="1.2" d="M501.58,-1034.67C520.74,-1004.9 548.29,-962.09 570.61,-927.42"/>
<polygon fill="black" stroke="black" stroke-width="1.2" points="573.3,-929.7 575.77,-919.4 567.41,-925.92 573.3,-929.7"/>
<text xml:space="preserve" text-anchor="middle" x="561.86" y="-965.51" font-family="Helvetica,sans-Serif" font-size="12.00">False</text>
</g>
<!-- 139639620307056 -->
<g id="node6" class="node">
<title>139639620307056</title>
<path fill="#f8f9fa" stroke="black" d="M297.81,-700.49C297.81,-700.49 148.86,-700.49 148.86,-700.49 142.86,-700.49 136.86,-694.49 136.86,-688.49 136.86,-688.49 136.86,-639.14 136.86,-639.14 136.86,-633.14 142.86,-627.14 148.86,-627.14 148.86,-627.14 297.81,-627.14 297.81,-627.14 303.81,-627.14 309.81,-633.14 309.81,-639.14 309.81,-639.14 309.81,-688.49 309.81,-688.49 309.81,-694.49 303.81,-700.49 297.81,-700.49"/>
<text xml:space="preserve" text-anchor="middle" x="223.34" y="-676.39" font-family="Helvetica,sans-Serif" font-size="14.00">NS &lt;= 8.50</text>
<text xml:space="preserve" text-anchor="middle" x="223.34" y="-659.14" font-family="Helvetica,sans-Serif" font-size="14.00">Samples: 87</text>
<text xml:space="preserve" text-anchor="middle" x="223.34" y="-641.89" font-family="Helvetica,sans-Serif" font-size="14.00">Gain Ratio: 0.0715</text>
</g>
<!-- 139639620306096&#45;&gt;139639620307056 -->
<g id="edge5" class="edge">
<title>139639620306096&#45;&gt;139639620307056</title>
<path fill="none" stroke="black" stroke-width="1.2" d="M326.81,-830.69C305.91,-797.18 274.71,-747.16 252.04,-710.82"/>
<polygon fill="black" stroke="black" stroke-width="1.2" points="255.11,-709.12 246.84,-702.49 249.17,-712.83 255.11,-709.12"/>
<text xml:space="preserve" text-anchor="middle" x="302.87" y="-761.53" font-family="Helvetica,sans-Serif" font-size="12.00">True</text>
</g>
<!-- 139639620320656 -->
<g id="node13" class="node">
<title>139639620320656</title>
<ellipse fill="#ffcccb" stroke="black" cx="475.34" cy="-663.81" rx="107.98" ry="51.87"/>
<text xml:space="preserve" text-anchor="middle" x="475.34" y="-676.39" font-family="Helvetica,sans-Serif" font-size="14.00">Class: At&#45;Risk</text>
<text xml:space="preserve" text-anchor="middle" x="475.34" y="-659.14" font-family="Helvetica,sans-Serif" font-size="14.00">Samples: 10</text>
<text xml:space="preserve" text-anchor="middle" x="475.34" y="-641.89" font-family="Helvetica,sans-Serif" font-size="14.00">Dist: [0: 2, 1: 8]</text>
</g>
<!-- 139639620306096&#45;&gt;139639620320656 -->
<g id="edge12" class="edge">
<title>139639620306096&#45;&gt;139639620320656</title>
<path fill="none" stroke="black" stroke-width="1.2" d="M371.87,-830.69C390.36,-801.05 416.91,-758.47 438.49,-723.88"/>
<polygon fill="black" stroke="black" stroke-width="1.2" points="441.44,-725.77 443.76,-715.43 435.5,-722.06 441.44,-725.77"/>
<text xml:space="preserve" text-anchor="middle" x="430.74" y="-761.53" font-family="Helvetica,sans-Serif" font-size="12.00">False</text>
</g>
<!-- 139639620309616 -->
<g id="node7" class="node">
<title>139639620309616</title>
<ellipse fill="#ffcccb" stroke="black" cx="179.34" cy="-459.83" rx="107.98" ry="51.87"/>
<text xml:space="preserve" text-anchor="middle" x="179.34" y="-472.41" font-family="Helvetica,sans-Serif" font-size="14.00">Class: At&#45;Risk</text>
<text xml:space="preserve" text-anchor="middle" x="179.34" y="-455.16" font-family="Helvetica,sans-Serif" font-size="14.00">Samples: 10</text>
<text xml:space="preserve" text-anchor="middle" x="179.34" y="-437.91" font-family="Helvetica,sans-Serif" font-size="14.00">Dist: [0: 3, 1: 7]</text>
</g>
<!-- 139639620307056&#45;&gt;139639620309616 -->
<g id="edge6" class="edge">
<title>139639620307056&#45;&gt;139639620309616</title>
<path fill="none" stroke="black" stroke-width="1.2" d="M215.47,-626.7C209.21,-597.95 200.3,-557.04 192.89,-523.04"/>
<polygon fill="black" stroke="black" stroke-width="1.2" points="196.38,-522.6 190.83,-513.58 189.54,-524.09 196.38,-522.6"/>
<text xml:space="preserve" text-anchor="middle" x="215.41" y="-557.55" font-family="Helvetica,sans-Serif" font-size="12.00">True</text>
</g>
<!-- 139639620309936 -->
<g id="node8" class="node">
<title>139639620309936</title>
<path fill="#f8f9fa" stroke="black" d="M505.81,-496.51C505.81,-496.51 356.86,-496.51 356.86,-496.51 350.86,-496.51 344.86,-490.51 344.86,-484.51 344.86,-484.51 344.86,-435.16 344.86,-435.16 344.86,-429.16 350.86,-423.16 356.86,-423.16 356.86,-423.16 505.81,-423.16 505.81,-423.16 511.81,-423.16 517.81,-429.16 517.81,-435.16 517.81,-435.16 517.81,-484.51 517.81,-484.51 517.81,-490.51 511.81,-496.51 505.81,-496.51"/>
<text xml:space="preserve" text-anchor="middle" x="431.34" y="-472.41" font-family="Helvetica,sans-Serif" font-size="14.00">ADD &lt;= 31.50</text>
<text xml:space="preserve" text-anchor="middle" x="431.34" y="-455.16" font-family="Helvetica,sans-Serif" font-size="14.00">Samples: 77</text>
<text xml:space="preserve" text-anchor="middle" x="431.34" y="-437.91" font-family="Helvetica,sans-Serif" font-size="14.00">Gain Ratio: 0.0572</text>
</g>
<!-- 139639620307056&#45;&gt;139639620309936 -->
<g id="edge7" class="edge">
<title>139639620307056&#45;&gt;139639620309936</title>
<path fill="none" stroke="black" stroke-width="1.2" d="M260.53,-626.7C295.61,-592.63 348.3,-541.47 385.87,-504.98"/>
<polygon fill="black" stroke="black" stroke-width="1.2" points="388.09,-507.71 392.82,-498.23 383.21,-502.69 388.09,-507.71"/>
<text xml:space="preserve" text-anchor="middle" x="348.2" y="-557.55" font-family="Helvetica,sans-Serif" font-size="12.00">False</text>
</g>
<!-- 139639620105904 -->
<g id="node9" class="node">
<title>139639620105904</title>
<path fill="#f8f9fa" stroke="black" d="M328.81,-292.52C328.81,-292.52 179.86,-292.52 179.86,-292.52 173.86,-292.52 167.86,-286.52 167.86,-280.52 167.86,-280.52 167.86,-231.17 167.86,-231.17 167.86,-225.17 173.86,-219.17 179.86,-219.17 179.86,-219.17 328.81,-219.17 328.81,-219.17 334.81,-219.17 340.81,-225.17 340.81,-231.17 340.81,-231.17 340.81,-280.52 340.81,-280.52 340.81,-286.52 334.81,-292.52 328.81,-292.52"/>
<text xml:space="preserve" text-anchor="middle" x="254.34" y="-268.42" font-family="Helvetica,sans-Serif" font-size="14.00">NC &lt;= 1054.78</text>
<text xml:space="preserve" text-anchor="middle" x="254.34" y="-251.17" font-family="Helvetica,sans-Serif" font-size="14.00">Samples: 24</text>
<text xml:space="preserve" text-anchor="middle" x="254.34" y="-233.92" font-family="Helvetica,sans-Serif" font-size="14.00">Gain Ratio: 0.1863</text>
</g>
<!-- 139639620309936&#45;&gt;139639620105904 -->
<g id="edge8" class="edge">
<title>139639620309936&#45;&gt;139639620105904</title>
<path fill="none" stroke="black" stroke-width="1.2" d="M399.7,-422.72C369.96,-388.79 325.38,-337.91 293.43,-301.46"/>
<polygon fill="black" stroke="black" stroke-width="1.2" points="296.43,-299.57 287.2,-294.35 291.16,-304.18 296.43,-299.57"/>
<text xml:space="preserve" text-anchor="middle" x="360.9" y="-353.57" font-family="Helvetica,sans-Serif" font-size="12.00">True</text>
</g>
<!-- 139639617063184 -->
<g id="node12" class="node">
<title>139639617063184</title>
<ellipse fill="#d4edda" stroke="black" cx="519.34" cy="-255.85" rx="120.7" ry="51.87"/>
<text xml:space="preserve" text-anchor="middle" x="519.34" y="-268.42" font-family="Helvetica,sans-Serif" font-size="14.00">Class: Typical</text>
<text xml:space="preserve" text-anchor="middle" x="519.34" y="-251.17" font-family="Helvetica,sans-Serif" font-size="14.00">Samples: 53</text>
<text xml:space="preserve" text-anchor="middle" x="519.34" y="-233.92" font-family="Helvetica,sans-Serif" font-size="14.00">Dist: [0: 39, 1: 14]</text>
</g>
<!-- 139639620309936&#45;&gt;139639617063184 -->
<g id="edge11" class="edge">
<title>139639620309936&#45;&gt;139639617063184</title>
<path fill="none" stroke="black" stroke-width="1.2" d="M447.07,-422.72C459.74,-393.64 477.83,-352.12 492.74,-317.89"/>
<polygon fill="black" stroke="black" stroke-width="1.2" points="495.95,-319.29 496.74,-308.73 489.53,-316.5 495.95,-319.29"/>
<text xml:space="preserve" text-anchor="middle" x="492.6" y="-353.57" font-family="Helvetica,sans-Serif" font-size="12.00">False</text>
</g>
<!-- 139639620308496 -->
<g id="node10" class="node">
<title>139639620308496</title>
<ellipse fill="#ffcccb" stroke="black" cx="114.34" cy="-51.87" rx="114.34" ry="51.87"/>
<text xml:space="preserve" text-anchor="middle" x="114.34" y="-64.44" font-family="Helvetica,sans-Serif" font-size="14.00">Class: At&#45;Risk</text>
<text xml:space="preserve" text-anchor="middle" x="114.34" y="-47.19" font-family="Helvetica,sans-Serif" font-size="14.00">Samples: 13</text>
<text xml:space="preserve" text-anchor="middle" x="114.34" y="-29.94" font-family="Helvetica,sans-Serif" font-size="14.00">Dist: [0: 3, 1: 10]</text>
</g>
<!-- 139639620105904&#45;&gt;139639620308496 -->
<g id="edge9" class="edge">
<title>139639620105904&#45;&gt;139639620308496</title>
<path fill="none" stroke="black" stroke-width="1.2" d="M229.31,-218.74C208.61,-188.87 178.8,-145.86 154.72,-111.13"/>
<polygon fill="black" stroke="black" stroke-width="1.2" points="157.7,-109.29 149.13,-103.06 151.95,-113.27 157.7,-109.29"/>
<text xml:space="preserve" text-anchor="middle" x="201.29" y="-149.58" font-family="Helvetica,sans-Serif" font-size="12.00">True</text>
</g>
<!-- 139639620307376 -->
<g id="node11" class="node">
<title>139639620307376</title>
<ellipse fill="#d4edda" stroke="black" cx="394.34" cy="-51.87" rx="107.98" ry="51.87"/>
<text xml:space="preserve" text-anchor="middle" x="394.34" y="-64.44" font-family="Helvetica,sans-Serif" font-size="14.00">Class: Typical</text>
<text xml:space="preserve" text-anchor="middle" x="394.34" y="-47.19" font-family="Helvetica,sans-Serif" font-size="14.00">Samples: 11</text>
<text xml:space="preserve" text-anchor="middle" x="394.34" y="-29.94" font-family="Helvetica,sans-Serif" font-size="14.00">Dist: [0: 8, 1: 3]</text>
</g>
<!-- 139639620105904&#45;&gt;139639620307376 -->
<g id="edge10" class="edge">
<title>139639620105904&#45;&gt;139639620307376</title>
<path fill="none" stroke="black" stroke-width="1.2" d="M279.37,-218.74C300.07,-188.87 329.88,-145.86 353.96,-111.13"/>
<polygon fill="black" stroke="black" stroke-width="1.2" points="356.73,-113.27 359.55,-103.06 350.98,-109.29 356.73,-113.27"/>
<text xml:space="preserve" text-anchor="middle" x="343.16" y="-149.58" font-family="Helvetica,sans-Serif" font-size="12.00">False</text>
</g>
</g>
</svg>
