<?xml version="1.0" encoding="UTF-8" standalone="no"?>
<!DOCTYPE svg PUBLIC "-//W3C//DTD SVG 1.1//EN"
 "http://www.w3.org/Graphics/SVG/1.1/DTD/svg11.dtd">
<!-- Generated by graphviz version 14.1.5 (0)
 -->
<!-- Pages: 1 -->
<svg width="4282pt" height="6162pt"
 viewBox="0.00 0.00 4282.00 6162.00" xmlns="http://www.w3.org/2000/svg" xmlns:xlink="http://www.w3.org/1999/xlink">
<g id="graph0" class="graph" transform="scale(4.16667 4.16667) rotate(0) translate(4 1474.85)">
<polygon fill="white" stroke="none" points="-4,4 -4,-1474.85 1023.68,-1474.85 1023.68,4 -4,4"/>
<!-- 139639617073744 -->
<g id="node1" class="node">
<title>139639617073744</title>
<path fill="#f8f9fa" stroke="black" d="M593.81,-1470.85C593.81,-1470.85 444.86,-1470.85 444.86,-1470.85 438.86,-1470.85 432.86,-1464.85 432.86,-1458.85 432.86,-1458.85 432.86,-1409.5 432.86,-1409.5 432.86,-1403.5 438.86,-1397.5 444.86,-1397.5 444.86,-1397.5 593.81,-1397.5 593.81,-1397.5 599.81,-1397.5 605.81,-1403.5 605.81,-1409.5 605.81,-1409.5 605.81,-1458.85 605.81,-1458.85 605.81,-1464.85 599.81,-1470.85 593.81,-1470.85"/>
<text xml:space="preserve" text-anchor="middle" x="519.34" y="-1446.75" font-family="Helvetica,sans-Serif" font-size="14.00">ADD &lt;= 24.50</text>
<text xml:space="preserve" text-anchor="middle" x="519.34" y="-1429.5" font-family="Helvetica,sans-Serif" font-size="14.00">Samples: 221</text>
<text xml:space="preserve" text-anchor="middle" x="519.34" y="-1412.25" font-family="Helvetica,sans-Serif" font-size="14.00">Gain Ratio: 0.2934</text>
</g>
<!-- 139639620320016 -->
<g id="node2" class="node">
<title>139639620320016</title>
<path fill="#f8f9fa" stroke="black" d="M468.81,-1297.25C468.81,-1297.25 319.86,-1297.25 319.86,-1297.25 313.86,-1297.25 307.86,-1291.25 307.86,-1285.25 307.86,-1285.25 307.86,-1235.9 307.86,-1235.9 307.86,-1229.9 313.86,-1223.9 319.86,-1223.9 319.86,-1223.9 468.81,-1223.9 468.81,-1223.9 474.81,-1223.9 480.81,-1229.9 480.81,-1235.9 480.81,-1235.9 480.81,-1285.25 480.81,-1285.25 480.81,-1291.25 474.81,-1297.25 468.81,-1297.25"/>
<text xml:space="preserve" text-anchor="middle" x="394.34" y="-1273.15" font-family="Helvetica,sans-Serif" font-size="14.00">CA &lt;= 14.50</text>
<text xml:space="preserve" text-anchor="middle" x="394.34" y="-1255.9" font-family="Helvetica,sans-Serif" font-size="14.00">Samples: 38</text>
<text xml:space="preserve" text-anchor="middle" x="394.34" y="-1238.65" font-family="Helvetica,sans-Serif" font-size="14.00">Gain Ratio: 0.2173</text>
</g>
<!-- 139639617073744&#45;&gt;139639620320016 -->
<g id="edge1" class="edge">
<title>139639617073744&#45;&gt;139639620320016</title>
<path fill="none" stroke="black" stroke-width="1.2" d="M493.14,-1397.2C473.97,-1370.88 447.83,-1335 427.26,-1306.76"/>
<polygon fill="black" stroke="black" stroke-width="1.2" points="430.3,-1304.99 421.58,-1298.96 424.64,-1309.11 430.3,-1304.99"/>
<text xml:space="preserve" text-anchor="middle" x="473.34" y="-1343.1" font-family="Helvetica,sans-Serif" font-size="12.00">True</text>
</g>
<!-- 139639620312176 -->
<g id="node5" class="node">
<title>139639620312176</title>
<path fill="#f8f9fa" stroke="black" d="M720.81,-1297.25C720.81,-1297.25 571.86,-1297.25 571.86,-1297.25 565.86,-1297.25 559.86,-1291.25 559.86,-1285.25 559.86,-1285.25 559.86,-1235.9 559.86,-1235.9 559.86,-1229.9 565.86,-1223.9 571.86,-1223.9 571.86,-1223.9 720.81,-1223.9 720.81,-1223.9 726.81,-1223.9 732.81,-1229.9 732.81,-1235.9 732.81,-1235.9 732.81,-1285.25 732.81,-1285.25 732.81,-1291.25 726.81,-1297.25 720.81,-1297.25"/>
<text xml:space="preserve" text-anchor="middle" x="646.34" y="-1273.15" font-family="Helvetica,sans-Serif" font-size="14.00">NS &lt;= 17.50</text>
<text xml:space="preserve" text-anchor="middle" x="646.34" y="-1255.9" font-family="Helvetica,sans-Serif" font-size="14.00">Samples: 183</text>
<text xml:space="preserve" text-anchor="middle" x="646.34" y="-1238.65" font-family="Helvetica,sans-Serif" font-size="14.00">Gain Ratio: 0.1791</text>
</g>
<!-- 139639617073744&#45;&gt;139639620312176 -->
<g id="edge4" class="edge">
<title>139639617073744&#45;&gt;139639620312176</title>
<path fill="none" stroke="black" stroke-width="1.2" d="M545.96,-1397.2C565.44,-1370.88 591.99,-1335 612.9,-1306.76"/>
<polygon fill="black" stroke="black" stroke-width="1.2" points="615.53,-1309.08 618.67,-1298.96 609.91,-1304.91 615.53,-1309.08"/>
<text xml:space="preserve" text-anchor="middle" x="601.27" y="-1343.1" font-family="Helvetica,sans-Serif" font-size="12.00">False</text>
</g>
<!-- 139639617071984 -->
<g id="node3" class="node">
<title>139639617071984</title>
<ellipse fill="#ffcccb" stroke="black" cx="114.34" cy="-1071.78" rx="114.34" ry="51.87"/>
<text xml:space="preserve" text-anchor="middle" x="114.34" y="-1084.35" font-family="Helvetica,sans-Serif" font-size="14.00">Class: At&#45;Risk</text>
<text xml:space="preserve" text-anchor="middle" x="114.34" y="-1067.1" font-family="Helvetica,sans-Serif" font-size="14.00">Samples: 26</text>
<text xml:space="preserve" text-anchor="middle" x="114.34" y="-1049.85" font-family="Helvetica,sans-Serif" font-size="14.00">Dist: [0: 0, 1: 26]</text>
</g>
<!-- 139639620320016&#45;&gt;139639617071984 -->
<g id="edge2" class="edge">
<title>139639620320016&#45;&gt;139639617071984</title>
<path fill="none" stroke="black" stroke-width="1.2" d="M340.35,-1223.56C296.94,-1194.59 235.51,-1153.61 187.65,-1121.69"/>
<polygon fill="black" stroke="black" stroke-width="1.2" points="189.74,-1118.87 179.47,-1116.23 185.85,-1124.69 189.74,-1118.87"/>
<text xml:space="preserve" text-anchor="middle" x="283.85" y="-1169.5" font-family="Helvetica,sans-Serif" font-size="12.00">True</text>
</g>
<!-- 139639617069744 -->
<g id="node4" class="node">
<title>139639617069744</title>
<ellipse fill="#ffcccb" stroke="black" cx="394.34" cy="-1071.78" rx="107.98" ry="51.87"/>
<text xml:space="preserve" text-anchor="middle" x="394.34" y="-1084.35" font-family="Helvetica,sans-Serif" font-size="14.00">Class: At&#45;Risk</text>
<text xml:space="preserve" text-anchor="middle" x="394.34" y="-1067.1" font-family="Helvetica,sans-Serif" font-size="14.00">Samples: 12</text>
<text xml:space="preserve" text-anchor="middle" x="394.34" y="-1049.85" font-family="Helvetica,sans-Serif" font-size="14.00">Dist: [0: 4, 1: 8]</text>
</g>
<!-- 139639620320016&#45;&gt;139639617069744 -->
<g id="edge3" class="edge">
<title>139639620320016&#45;&gt;139639617069744</title>
<path fill="none" stroke="black" stroke-width="1.2" d="M394.34,-1223.56C394.34,-1198.68 394.34,-1164.93 394.34,-1135.67"/>
<polygon fill="black" stroke="black" stroke-width="1.2" points="397.84,-1135.68 394.34,-1125.68 390.84,-1135.68 397.84,-1135.68"/>
<text xml:space="preserve" text-anchor="middle" x="408.96" y="-1169.5" font-family="Helvetica,sans-Serif" font-size="12.00">False</text>
</g>
<!-- 139639620311056 -->
<g id="node6" class="node">
<title>139639620311056</title>
<path fill="#f8f9fa" stroke="black" d="M720.81,-1108.45C720.81,-1108.45 571.86,-1108.45 571.86,-1108.45 565.86,-1108.45 559.86,-1102.45 559.86,-1096.45 559.86,-1096.45 559.86,-1047.1 559.86,-1047.1 559.86,-1041.1 565.86,-1035.1 571.86,-1035.1 571.86,-1035.1 720.81,-1035.1 720.81,-1035.1 726.81,-1035.1 732.81,-1041.1 732.81,-1047.1 732.81,-1047.1 732.81,-1096.45 732.81,-1096.45 732.81,-1102.45 726.81,-1108.45 720.81,-1108.45"/>
<text xml:space="preserve" text-anchor="middle" x="646.34" y="-1084.35" font-family="Helvetica,sans-Serif" font-size="14.00">SUB &lt;= 43.50</text>
<text xml:space="preserve" text-anchor="middle" x="646.34" y="-1067.1" font-family="Helvetica,sans-Serif" font-size="14.00">Samples: 110</text>
<text xml:space="preserve" text-anchor="middle" x="646.34" y="-1049.85" font-family="Helvetica,sans-Serif" font-size="14.00">Gain Ratio: 0.0931</text>
</g>
<!-- 139639620312176&#45;&gt;139639620311056 -->
<g id="edge5" class="edge">
<title>139639620312176&#45;&gt;139639620311056</title>
<path fill="none" stroke="black" stroke-width="1.2" d="M646.34,-1223.56C646.34,-1194.23 646.34,-1152.57 646.34,-1120.47"/>
<polygon fill="black" stroke="black" stroke-width="1.2" points="649.84,-1120.5 646.34,-1110.5 642.84,-1120.5 649.84,-1120.5"/>
<text xml:space="preserve" text-anchor="middle" x="659.09" y="-1169.5" font-family="Helvetica,sans-Serif" font-size="12.00">True</text>
</g>
<!-- 139639617075664 -->
<g id="node17" class="node">
<title>139639617075664</title>
<ellipse fill="#d4edda" stroke="black" cx="905.34" cy="-1071.78" rx="114.34" ry="51.87"/>
<text xml:space="preserve" text-anchor="middle" x="905.34" y="-1084.35" font-family="Helvetica,sans-Serif" font-size="14.00">Class: Typical</text>
<text xml:space="preserve" text-anchor="middle" x="905.34" y="-1067.1" font-family="Helvetica,sans-Serif" font-size="14.00">Samples: 73</text>
<text xml:space="preserve" text-anchor="middle" x="905.34" y="-1049.85" font-family="Helvetica,sans-Serif" font-size="14.00">Dist: [0: 72, 1: 1]</text>
</g>
<!-- 139639620312176&#45;&gt;139639617075664 -->
<g id="edge16" class="edge">
<title>139639620312176&#45;&gt;139639617075664</title>
<path fill="none" stroke="black" stroke-width="1.2" d="M696.28,-1223.56C735.86,-1195.01 791.62,-1154.79 835.6,-1123.07"/>
<polygon fill="black" stroke="black" stroke-width="1.2" points="837.55,-1125.99 843.61,-1117.3 833.45,-1120.31 837.55,-1125.99"/>
<text xml:space="preserve" text-anchor="middle" x="782.7" y="-1169.5" font-family="Helvetica,sans-Serif" font-size="12.00">False</text>
</g>
<!-- 139639620103184 -->
<g id="node7" class="node">
<title>139639620103184</title>
<path fill="#f8f9fa" stroke="black" d="M548.81,-904.47C548.81,-904.47 399.86,-904.47 399.86,-904.47 393.86,-904.47 387.86,-898.47 387.86,-892.47 387.86,-892.47 387.86,-843.12 387.86,-843.12 387.86,-837.12 393.86,-831.12 399.86,-831.12 399.86,-831.12 548.81,-831.12 548.81,-831.12 554.81,-831.12 560.81,-837.12 560.81,-843.12 560.81,-843.12 560.81,-892.47 560.81,-892.47 560.81,-898.47 554.81,-904.47 548.81,-904.47"/>
<text xml:space="preserve" text-anchor="middle" x="474.34" y="-880.37" font-family="Helvetica,sans-Serif" font-size="14.00">DM &lt;= 3165.96</text>
<text xml:space="preserve" text-anchor="middle" x="474.34" y="-863.12" font-family="Helvetica,sans-Serif" font-size="14.00">Samples: 97</text>
<text xml:space="preserve" text-anchor="middle" x="474.34" y="-845.87" font-family="Helvetica,sans-Serif" font-size="14.00">Gain Ratio: 0.0977</text>
</g>
<!-- 139639620311056&#45;&gt;139639620103184 -->
<g id="edge6" class="edge">
<title>139639620311056&#45;&gt;139639620103184</title>
<path fill="none" stroke="black" stroke-width="1.2" d="M615.59,-1034.67C586.82,-1000.88 543.74,-950.29 512.72,-913.87"/>
<polygon fill="black" stroke="black" stroke-width="1.2" points="515.44,-911.66 506.29,-906.32 510.11,-916.2 515.44,-911.66"/>
<text xml:space="preserve" text-anchor="middle" x="578.25" y="-965.51" font-family="Helvetica,sans-Serif" font-size="12.00">True</text>
</g>
<!-- 139639620318256 -->
<g id="node16" class="node">
<title>139639620318256</title>
<ellipse fill="#d4edda" stroke="black" cx="733.34" cy="-867.8" rx="114.34" ry="51.87"/>
<text xml:space="preserve" text-anchor="middle" x="733.34" y="-880.37" font-family="Helvetica,sans-Serif" font-size="14.00">Class: Typical</text>
<text xml:space="preserve" text-anchor="middle" x="733.34" y="-863.12" font-family="Helvetica,sans-Serif" font-size="14.00">Samples: 13</text>
<text xml:space="preserve" text-anchor="middle" x="733.34" y="-845.87" font-family="Helvetica,sans-Serif" font-size="14.00">Dist: [0: 12, 1: 1]</text>
</g>
<!-- 139639620311056&#45;&gt;139639620318256 -->
<g id="edge15" class="edge">
<title>139639620311056&#45;&gt;139639620318256</title>
<path fill="none" stroke="black" stroke-width="1.2" d="M661.89,-1034.67C674.42,-1005.59 692.3,-964.07 707.05,-929.84"/>
<polygon fill="black" stroke="black" stroke-width="1.2" points="710.25,-931.25 710.99,-920.68 703.82,-928.48 710.25,-931.25"/>
<text xml:space="preserve" text-anchor="middle" x="707.07" y="-965.51" font-family="Helvetica,sans-Serif" font-size="12.00">False</text>
</g>
<!-- 139639620095664 -->
<g id="node8" class="node">
<title>139639620095664</title>
<path fill="#f8f9fa" stroke="black" d="M422.81,-700.49C422.81,-700.49 273.86,-700.49 273.86,-700.49 267.86,-700.49 261.86,-694.49 261.86,-688.49 261.86,-688.49 261.86,-639.14 261.86,-639.14 261.86,-633.14 267.86,-627.14 273.86,-627.14 273.86,-627.14 422.81,-627.14 422.81,-627.14 428.81,-627.14 434.81,-633.14 434.81,-639.14 434.81,-639.14 434.81,-688.49 434.81,-688.49 434.81,-694.49 428.81,-700.49 422.81,-700.49"/>
<text xml:space="preserve" text-anchor="middle" x="348.34" y="-676.39" font-family="Helvetica,sans-Serif" font-size="14.00">NS &lt;= 8.50</text>
<text xml:space="preserve" text-anchor="middle" x="348.34" y="-659.14" font-family="Helvetica,sans-Serif" font-size="14.00">Samples: 87</text>
<text xml:space="preserve" text-anchor="middle" x="348.34" y="-641.89" font-family="Helvetica,sans-Serif" font-size="14.00">Gain Ratio: 0.0715</text>
</g>
<!-- 139639620103184&#45;&gt;139639620095664 -->
<g id="edge7" class="edge">
<title>139639620103184&#45;&gt;139639620095664</title>
<path fill="none" stroke="black" stroke-width="1.2" d="M451.81,-830.69C430.91,-797.18 399.71,-747.16 377.04,-710.82"/>
<polygon fill="black" stroke="black" stroke-width="1.2" points="380.11,-709.12 371.84,-702.49 374.17,-712.83 380.11,-709.12"/>
<text xml:space="preserve" text-anchor="middle" x="427.87" y="-761.53" font-family="Helvetica,sans-Serif" font-size="12.00">True</text>
</g>
<!-- 139639620306416 -->
<g id="node15" class="node">
<title>139639620306416</title>
<ellipse fill="#ffcccb" stroke="black" cx="600.34" cy="-663.81" rx="107.98" ry="51.87"/>
<text xml:space="preserve" text-anchor="middle" x="600.34" y="-676.39" font-family="Helvetica,sans-Serif" font-size="14.00">Class: At&#45;Risk</text>
<text xml:space="preserve" text-anchor="middle" x="600.34" y="-659.14" font-family="Helvetica,sans-Serif" font-size="14.00">Samples: 10</text>
<text xml:space="preserve" text-anchor="middle" x="600.34" y="-641.89" font-family="Helvetica,sans-Serif" font-size="14.00">Dist: [0: 2, 1: 8]</text>
</g>
<!-- 139639620103184&#45;&gt;139639620306416 -->
<g id="edge14" class="edge">
<title>139639620103184&#45;&gt;139639620306416</title>
<path fill="none" stroke="black" stroke-width="1.2" d="M496.87,-830.69C515.36,-801.05 541.91,-758.47 563.49,-723.88"/>
<polygon fill="black" stroke="black" stroke-width="1.2" points="566.44,-725.77 568.76,-715.43 560.5,-722.06 566.44,-725.77"/>
<text xml:space="preserve" text-anchor="middle" x="555.74" y="-761.53" font-family="Helvetica,sans-Serif" font-size="12.00">False</text>
</g>
<!-- 139639620313456 -->
<g id="node9" class="node">
<title>139639620313456</title>
<ellipse fill="#ffcccb" stroke="black" cx="304.34" cy="-459.83" rx="107.98" ry="51.87"/>
<text xml:space="preserve" text-anchor="middle" x="304.34" y="-472.41" font-family="Helvetica,sans-Serif" font-size="14.00">Class: At&#45;Risk</text>
<text xml:space="preserve" text-anchor="middle" x="304.34" y="-455.16" font-family="Helvetica,sans-Serif" font-size="14.00">Samples: 10</text>
<text xml:space="preserve" text-anchor="middle" x="304.34" y="-437.91" font-family="Helvetica,sans-Serif" font-size="14.00">Dist: [0: 3, 1: 7]</text>
</g>
<!-- 139639620095664&#45;&gt;139639620313456 -->
<g id="edge8" class="edge">
<title>139639620095664&#45;&gt;139639620313456</title>
<path fill="none" stroke="black" stroke-width="1.2" d="M340.47,-626.7C334.21,-597.95 325.3,-557.04 317.89,-523.04"/>
<polygon fill="black" stroke="black" stroke-width="1.2" points="321.38,-522.6 315.83,-513.58 314.54,-524.09 321.38,-522.6"/>
<text xml:space="preserve" text-anchor="middle" x="340.41" y="-557.55" font-family="Helvetica,sans-Serif" font-size="12.00">True</text>
</g>
<!-- 139639620107984 -->
<g id="node10" class="node">
<title>139639620107984</title>
<path fill="#f8f9fa" stroke="black" d="M630.81,-496.51C630.81,-496.51 481.86,-496.51 481.86,-496.51 475.86,-496.51 469.86,-490.51 469.86,-484.51 469.86,-484.51 469.86,-435.16 469.86,-435.16 469.86,-429.16 475.86,-423.16 481.86,-423.16 481.86,-423.16 630.81,-423.16 630.81,-423.16 636.81,-423.16 642.81,-429.16 642.81,-435.16 642.81,-435.16 642.81,-484.51 642.81,-484.51 642.81,-490.51 636.81,-496.51 630.81,-496.51"/>
<text xml:space="preserve" text-anchor="middle" x="556.34" y="-472.41" font-family="Helvetica,sans-Serif" font-size="14.00">ADD &lt;= 31.50</text>
<text xml:space="preserve" text-anchor="middle" x="556.34" y="-455.16" font-family="Helvetica,sans-Serif" font-size="14.00">Samples: 77</text>
<text xml:space="preserve" text-anchor="middle" x="556.34" y="-437.91" font-family="Helvetica,sans-Serif" font-size="14.00">Gain Ratio: 0.0572</text>
</g>
<!-- 139639620095664&#45;&gt;139639620107984 -->
<g id="edge9" class="edge">
<title>139639620095664&#45;&gt;139639620107984</title>
<path fill="none" stroke="black" stroke-width="1.2" d="M385.53,-626.7C420.61,-592.63 473.3,-541.47 510.87,-504.98"/>
<polygon fill="black" stroke="black" stroke-width="1.2" points="513.09,-507.71 517.82,-498.23 508.21,-502.69 513.09,-507.71"/>
<text xml:space="preserve" text-anchor="middle" x="473.2" y="-557.55" font-family="Helvetica,sans-Serif" font-size="12.00">False</text>
</g>
<!-- 139639620092944 -->
<g id="node11" class="node">
<title>139639620092944</title>
<path fill="#f8f9fa" stroke="black" d="M453.81,-292.52C453.81,-292.52 304.86,-292.52 304.86,-292.52 298.86,-292.52 292.86,-286.52 292.86,-280.52 292.86,-280.52 292.86,-231.17 292.86,-231.17 292.86,-225.17 298.86,-219.17 304.86,-219.17 304.86,-219.17 453.81,-219.17 453.81,-219.17 459.81,-219.17 465.81,-225.17 465.81,-231.17 465.81,-231.17 465.81,-280.52 465.81,-280.52 465.81,-286.52 459.81,-292.52 453.81,-292.52"/>
<text xml:space="preserve" text-anchor="middle" x="379.34" y="-268.42" font-family="Helvetica,sans-Serif" font-size="14.00">NC &lt;= 1054.78</text>
<text xml:space="preserve" text-anchor="middle" x="379.34" y="-251.17" font-family="Helvetica,sans-Serif" font-size="14.00">Samples: 24</text>
<text xml:space="preserve" text-anchor="middle" x="379.34" y="-233.92" font-family="Helvetica,sans-Serif" font-size="14.00">Gain Ratio: 0.1863</text>
</g>
<!-- 139639620107984&#45;&gt;139639620092944 -->
<g id="edge10" class="edge">
<title>139639620107984&#45;&gt;139639620092944</title>
<path fill="none" stroke="black" stroke-width="1.2" d="M524.7,-422.72C494.96,-388.79 450.38,-337.91 418.43,-301.46"/>
<polygon fill="black" stroke="black" stroke-width="1.2" points="421.43,-299.57 412.2,-294.35 416.16,-304.18 421.43,-299.57"/>
<text xml:space="preserve" text-anchor="middle" x="485.9" y="-353.57" font-family="Helvetica,sans-Serif" font-size="12.00">True</text>
</g>
<!-- 139640784299152 -->
<g id="node14" class="node">
<title>139640784299152</title>
<ellipse fill="#d4edda" stroke="black" cx="644.34" cy="-255.85" rx="120.7" ry="51.87"/>
<text xml:space="preserve" text-anchor="middle" x="644.34" y="-268.42" font-family="Helvetica,sans-Serif" font-size="14.00">Class: Typical</text>
<text xml:space="preserve" text-anchor="middle" x="644.34" y="-251.17" font-family="Helvetica,sans-Serif" font-size="14.00">Samples: 53</text>
<text xml:space="preserve" text-anchor="middle" x="644.34" y="-233.92" font-family="Helvetica,sans-Serif" font-size="14.00">Dist: [0: 39, 1: 14]</text>
</g>
<!-- 139639620107984&#45;&gt;139640784299152 -->
<g id="edge13" class="edge">
<title>139639620107984&#45;&gt;139640784299152</title>
<path fill="none" stroke="black" stroke-width="1.2" d="M572.07,-422.72C584.74,-393.64 602.83,-352.12 617.74,-317.89"/>
<polygon fill="black" stroke="black" stroke-width="1.2" points="620.95,-319.29 621.74,-308.73 614.53,-316.5 620.95,-319.29"/>
<text xml:space="preserve" text-anchor="middle" x="617.6" y="-353.57" font-family="Helvetica,sans-Serif" font-size="12.00">False</text>
</g>
<!-- 139639620107184 -->
<g id="node12" class="node">
<title>139639620107184</title>
<ellipse fill="#ffcccb" stroke="black" cx="239.34" cy="-51.87" rx="114.34" ry="51.87"/>
<text xml:space="preserve" text-anchor="middle" x="239.34" y="-64.44" font-family="Helvetica,sans-Serif" font-size="14.00">Class: At&#45;Risk</text>
<text xml:space="preserve" text-anchor="middle" x="239.34" y="-47.19" font-family="Helvetica,sans-Serif" font-size="14.00">Samples: 13</text>
<text xml:space="preserve" text-anchor="middle" x="239.34" y="-29.94" font-family="Helvetica,sans-Serif" font-size="14.00">Dist: [0: 3, 1: 10]</text>
</g>
<!-- 139639620092944&#45;&gt;139639620107184 -->
<g id="edge11" class="edge">
<title>139639620092944&#45;&gt;139639620107184</title>
<path fill="none" stroke="black" stroke-width="1.2" d="M354.31,-218.74C333.61,-188.87 303.8,-145.86 279.72,-111.13"/>
<polygon fill="black" stroke="black" stroke-width="1.2" points="282.7,-109.29 274.13,-103.06 276.95,-113.27 282.7,-109.29"/>
<text xml:space="preserve" text-anchor="middle" x="326.29" y="-149.58" font-family="Helvetica,sans-Serif" font-size="12.00">True</text>
</g>
<!-- 139639620104784 -->
<g id="node13" class="node">
<title>139639620104784</title>
<ellipse fill="#d4edda" stroke="black" cx="519.34" cy="-51.87" rx="107.98" ry="51.87"/>
<text xml:space="preserve" text-anchor="middle" x="519.34" y="-64.44" font-family="Helvetica,sans-Serif" font-size="14.00">Class: Typical</text>
<text xml:space="preserve" text-anchor="middle" x="519.34" y="-47.19" font-family="Helvetica,sans-Serif" font-size="14.00">Samples: 11</text>
<text xml:space="preserve" text-anchor="middle" x="519.34" y="-29.94" font-family="Helvetica,sans-Serif" font-size="14.00">Dist: [0: 8, 1: 3]</text>
</g>
<!-- 139639620092944&#45;&gt;139639620104784 -->
<g id="edge12" class="edge">
<title>139639620092944&#45;&gt;139639620104784</title>
<path fill="none" stroke="black" stroke-width="1.2" d="M404.37,-218.74C425.07,-188.87 454.88,-145.86 478.96,-111.13"/>
<polygon fill="black" stroke="black" stroke-width="1.2" points="481.73,-113.27 484.55,-103.06 475.98,-109.29 481.73,-113.27"/>
<text xml:space="preserve" text-anchor="middle" x="468.16" y="-149.58" font-family="Helvetica,sans-Serif" font-size="12.00">False</text>
</g>
</g>
</svg>
