<?xml version="1.0" encoding="UTF-8" standalone="no"?>
<!DOCTYPE svg PUBLIC "-//W3C//DTD SVG 1.1//EN"
 "http://www.w3.org/Graphics/SVG/1.1/DTD/svg11.dtd">
<!-- Generated by graphviz version 14.1.4 (0)
 -->
<!-- Pages: 1 -->
<svg width="142pt" height="360pt"
 viewBox="0.00 0.00 142.00 360.00" xmlns="http://www.w3.org/2000/svg" xmlns:xlink="http://www.w3.org/1999/xlink">
<g id="graph0" class="graph" transform="scale(0.326645 0.326645) rotate(0) translate(4 1098.11)">
<polygon fill="white" stroke="none" points="-4,4 -4,-1098.11 431.15,-1098.11 431.15,4 -4,4"/>
<!-- 140322055319184 -->
<g id="node1" class="node">
<title>140322055319184</title>
<path fill="#add8e6" stroke="#add8e6" d="M253.7,-1094.11C253.7,-1094.11 169.45,-1094.11 169.45,-1094.11 163.45,-1094.11 157.45,-1088.11 157.45,-1082.11 157.45,-1082.11 157.45,-1050.86 157.45,-1050.86 157.45,-1044.86 163.45,-1038.86 169.45,-1038.86 169.45,-1038.86 253.7,-1038.86 253.7,-1038.86 259.7,-1038.86 265.7,-1044.86 265.7,-1050.86 265.7,-1050.86 265.7,-1082.11 265.7,-1082.11 265.7,-1088.11 259.7,-1094.11 253.7,-1094.11"/>
<text xml:space="preserve" text-anchor="middle" x="211.57" y="-1076.81" font-family="Arial" font-size="14.00">NC &lt;= 1508.93</text>
<text xml:space="preserve" text-anchor="middle" x="211.57" y="-1061.06" font-family="Arial" font-size="14.00">GR: 0.2156</text>
<text xml:space="preserve" text-anchor="middle" x="211.57" y="-1045.31" font-family="Arial" font-size="14.00">Samples: 308</text>
</g>
<!-- 140322055314064 -->
<g id="node2" class="node">
<title>140322055314064</title>
<path fill="#add8e6" stroke="#add8e6" d="M183.7,-968.28C183.7,-968.28 105.45,-968.28 105.45,-968.28 99.45,-968.28 93.45,-962.28 93.45,-956.28 93.45,-956.28 93.45,-925.03 93.45,-925.03 93.45,-919.03 99.45,-913.03 105.45,-913.03 105.45,-913.03 183.7,-913.03 183.7,-913.03 189.7,-913.03 195.7,-919.03 195.7,-925.03 195.7,-925.03 195.7,-956.28 195.7,-956.28 195.7,-962.28 189.7,-968.28 183.7,-968.28"/>
<text xml:space="preserve" text-anchor="middle" x="144.57" y="-950.98" font-family="Arial" font-size="14.00">ADD &lt;= 15.75</text>
<text xml:space="preserve" text-anchor="middle" x="144.57" y="-935.23" font-family="Arial" font-size="14.00">GR: 0.1775</text>
<text xml:space="preserve" text-anchor="middle" x="144.57" y="-919.48" font-family="Arial" font-size="14.00">Samples: 282</text>
</g>
<!-- 140322055319184&#45;&gt;140322055314064 -->
<g id="edge1" class="edge">
<title>140322055319184&#45;&gt;140322055314064</title>
<path fill="none" stroke="black" d="M197.04,-1038.62C187.51,-1021.01 174.93,-997.77 164.48,-978.45"/>
<polygon fill="black" stroke="black" points="167.64,-976.94 159.8,-969.81 161.48,-980.27 167.64,-976.94"/>
<text xml:space="preserve" text-anchor="middle" x="195.8" y="-1011.36" font-family="Arial" font-size="10.00">True</text>
</g>
<!-- 140322055314384 -->
<g id="node15" class="node">
<title>140322055314384</title>
<ellipse fill="#bdecb6" stroke="#bdecb6" cx="278.57" cy="-940.66" rx="64.88" ry="50.2"/>
<text xml:space="preserve" text-anchor="middle" x="278.57" y="-958.86" font-family="Arial" font-size="14.00">LEAF</text>
<text xml:space="preserve" text-anchor="middle" x="278.57" y="-943.11" font-family="Arial" font-size="14.00">Class: 1</text>
<text xml:space="preserve" text-anchor="middle" x="278.57" y="-927.36" font-family="Arial" font-size="14.00">Samples: 26</text>
<text xml:space="preserve" text-anchor="middle" x="278.57" y="-911.61" font-family="Arial" font-size="14.00">[1:26]</text>
</g>
<!-- 140322055319184&#45;&gt;140322055314384 -->
<g id="edge14" class="edge">
<title>140322055319184&#45;&gt;140322055314384</title>
<path fill="none" stroke="black" d="M226.11,-1038.62C232.68,-1026.48 240.69,-1011.67 248.47,-997.31"/>
<polygon fill="black" stroke="black" points="251.38,-999.27 253.06,-988.81 245.23,-995.94 251.38,-999.27"/>
<text xml:space="preserve" text-anchor="middle" x="253.06" y="-1011.36" font-family="Arial" font-size="10.00">False</text>
</g>
<!-- 140322055317584 -->
<g id="node3" class="node">
<title>140322055317584</title>
<ellipse fill="#bdecb6" stroke="#bdecb6" cx="123.57" cy="-792.25" rx="59.57" ry="50.2"/>
<text xml:space="preserve" text-anchor="middle" x="123.57" y="-810.45" font-family="Arial" font-size="14.00">LEAF</text>
<text xml:space="preserve" text-anchor="middle" x="123.57" y="-794.7" font-family="Arial" font-size="14.00">Class: 1</text>
<text xml:space="preserve" text-anchor="middle" x="123.57" y="-778.95" font-family="Arial" font-size="14.00">Samples: 8</text>
<text xml:space="preserve" text-anchor="middle" x="123.57" y="-763.2" font-family="Arial" font-size="14.00">[1:8]</text>
</g>
<!-- 140322055314064&#45;&gt;140322055317584 -->
<g id="edge2" class="edge">
<title>140322055314064&#45;&gt;140322055317584</title>
<path fill="none" stroke="black" d="M140.72,-912.81C138.34,-896.23 135.19,-874.26 132.24,-853.69"/>
<polygon fill="black" stroke="black" points="135.73,-853.34 130.84,-843.94 128.8,-854.34 135.73,-853.34"/>
<text xml:space="preserve" text-anchor="middle" x="144.45" y="-862.95" font-family="Arial" font-size="10.00">True</text>
</g>
<!-- 140322055317744 -->
<g id="node4" class="node">
<title>140322055317744</title>
<path fill="#add8e6" stroke="#add8e6" d="M299.82,-819.88C299.82,-819.88 213.32,-819.88 213.32,-819.88 207.32,-819.88 201.32,-813.88 201.32,-807.88 201.32,-807.88 201.32,-776.63 201.32,-776.63 201.32,-770.63 207.32,-764.63 213.32,-764.63 213.32,-764.63 299.82,-764.63 299.82,-764.63 305.82,-764.63 311.82,-770.63 311.82,-776.63 311.82,-776.63 311.82,-807.88 311.82,-807.88 311.82,-813.88 305.82,-819.88 299.82,-819.88"/>
<text xml:space="preserve" text-anchor="middle" x="256.57" y="-802.58" font-family="Arial" font-size="14.00">DM &lt;= 3564.20</text>
<text xml:space="preserve" text-anchor="middle" x="256.57" y="-786.83" font-family="Arial" font-size="14.00">GR: 0.1677</text>
<text xml:space="preserve" text-anchor="middle" x="256.57" y="-771.08" font-family="Arial" font-size="14.00">Samples: 274</text>
</g>
<!-- 140322055314064&#45;&gt;140322055317744 -->
<g id="edge3" class="edge">
<title>140322055314064&#45;&gt;140322055317744</title>
<path fill="none" stroke="black" d="M165.12,-912.81C183.11,-889.28 209.41,-854.9 229.2,-829.04"/>
<polygon fill="black" stroke="black" points="231.95,-831.21 235.24,-821.14 226.39,-826.95 231.95,-831.21"/>
<text xml:space="preserve" text-anchor="middle" x="215.93" y="-862.95" font-family="Arial" font-size="10.00">False</text>
</g>
<!-- 140322055471664 -->
<g id="node5" class="node">
<title>140322055471664</title>
<path fill="#add8e6" stroke="#add8e6" d="M217.95,-671.47C217.95,-671.47 69.2,-671.47 69.2,-671.47 63.2,-671.47 57.2,-665.47 57.2,-659.47 57.2,-659.47 57.2,-628.22 57.2,-628.22 57.2,-622.22 63.2,-616.22 69.2,-616.22 69.2,-616.22 217.95,-616.22 217.95,-616.22 223.95,-616.22 229.95,-622.22 229.95,-628.22 229.95,-628.22 229.95,-659.47 229.95,-659.47 229.95,-665.47 223.95,-671.47 217.95,-671.47"/>
<text xml:space="preserve" text-anchor="middle" x="143.57" y="-654.17" font-family="Arial" font-size="14.00">incomplete_count &lt;= 1.50</text>
<text xml:space="preserve" text-anchor="middle" x="143.57" y="-638.42" font-family="Arial" font-size="14.00">GR: 0.1653</text>
<text xml:space="preserve" text-anchor="middle" x="143.57" y="-622.67" font-family="Arial" font-size="14.00">Samples: 269</text>
</g>
<!-- 140322055317744&#45;&gt;140322055471664 -->
<g id="edge4" class="edge">
<title>140322055317744&#45;&gt;140322055471664</title>
<path fill="none" stroke="black" d="M235.85,-764.4C217.69,-740.87 191.16,-706.49 171.2,-680.63"/>
<polygon fill="black" stroke="black" points="173.97,-678.5 165.09,-672.72 168.43,-682.78 173.97,-678.5"/>
<text xml:space="preserve" text-anchor="middle" x="213.21" y="-714.55" font-family="Arial" font-size="10.00">True</text>
</g>
<!-- 140322055320784 -->
<g id="node14" class="node">
<title>140322055320784</title>
<ellipse fill="#bdecb6" stroke="#bdecb6" cx="307.57" cy="-643.84" rx="59.57" ry="50.2"/>
<text xml:space="preserve" text-anchor="middle" x="307.57" y="-662.04" font-family="Arial" font-size="14.00">LEAF</text>
<text xml:space="preserve" text-anchor="middle" x="307.57" y="-646.29" font-family="Arial" font-size="14.00">Class: 1</text>
<text xml:space="preserve" text-anchor="middle" x="307.57" y="-630.54" font-family="Arial" font-size="14.00">Samples: 5</text>
<text xml:space="preserve" text-anchor="middle" x="307.57" y="-614.79" font-family="Arial" font-size="14.00">[1:5]</text>
</g>
<!-- 140322055317744&#45;&gt;140322055320784 -->
<g id="edge13" class="edge">
<title>140322055317744&#45;&gt;140322055320784</title>
<path fill="none" stroke="black" d="M265.93,-764.4C271.88,-747.31 279.82,-724.51 287.17,-703.4"/>
<polygon fill="black" stroke="black" points="290.47,-704.58 290.45,-693.99 283.86,-702.28 290.47,-704.58"/>
<text xml:space="preserve" text-anchor="middle" x="295.6" y="-714.55" font-family="Arial" font-size="10.00">False</text>
</g>
<!-- 140322055473584 -->
<g id="node6" class="node">
<title>140322055473584</title>
<path fill="#add8e6" stroke="#add8e6" d="M118.2,-523.06C118.2,-523.06 42.95,-523.06 42.95,-523.06 36.95,-523.06 30.95,-517.06 30.95,-511.06 30.95,-511.06 30.95,-479.81 30.95,-479.81 30.95,-473.81 36.95,-467.81 42.95,-467.81 42.95,-467.81 118.2,-467.81 118.2,-467.81 124.2,-467.81 130.2,-473.81 130.2,-479.81 130.2,-479.81 130.2,-511.06 130.2,-511.06 130.2,-517.06 124.2,-523.06 118.2,-523.06"/>
<text xml:space="preserve" text-anchor="middle" x="80.57" y="-505.76" font-family="Arial" font-size="14.00">NS &lt;= 2.50</text>
<text xml:space="preserve" text-anchor="middle" x="80.57" y="-490.01" font-family="Arial" font-size="14.00">GR: 0.1488</text>
<text xml:space="preserve" text-anchor="middle" x="80.57" y="-474.26" font-family="Arial" font-size="14.00">Samples: 265</text>
</g>
<!-- 140322055471664&#45;&gt;140322055473584 -->
<g id="edge5" class="edge">
<title>140322055471664&#45;&gt;140322055473584</title>
<path fill="none" stroke="black" d="M132.02,-615.99C122.07,-592.87 107.62,-559.28 96.56,-533.59"/>
<polygon fill="black" stroke="black" points="99.82,-532.31 92.65,-524.51 93.39,-535.07 99.82,-532.31"/>
<text xml:space="preserve" text-anchor="middle" x="123.71" y="-566.14" font-family="Arial" font-size="10.00">True</text>
</g>
<!-- 140322055320144 -->
<g id="node13" class="node">
<title>140322055320144</title>
<ellipse fill="#bdecb6" stroke="#bdecb6" cx="207.57" cy="-495.43" rx="59.57" ry="50.2"/>
<text xml:space="preserve" text-anchor="middle" x="207.57" y="-513.63" font-family="Arial" font-size="14.00">LEAF</text>
<text xml:space="preserve" text-anchor="middle" x="207.57" y="-497.88" font-family="Arial" font-size="14.00">Class: 1</text>
<text xml:space="preserve" text-anchor="middle" x="207.57" y="-482.13" font-family="Arial" font-size="14.00">Samples: 4</text>
<text xml:space="preserve" text-anchor="middle" x="207.57" y="-466.38" font-family="Arial" font-size="14.00">[1:4]</text>
</g>
<!-- 140322055471664&#45;&gt;140322055320144 -->
<g id="edge12" class="edge">
<title>140322055471664&#45;&gt;140322055320144</title>
<path fill="none" stroke="black" d="M155.31,-615.99C162.97,-598.46 173.26,-574.92 182.69,-553.36"/>
<polygon fill="black" stroke="black" points="185.82,-554.93 186.62,-544.36 179.41,-552.12 185.82,-554.93"/>
<text xml:space="preserve" text-anchor="middle" x="189.49" y="-566.14" font-family="Arial" font-size="10.00">False</text>
</g>
<!-- 140322055473904 -->
<g id="node7" class="node">
<title>140322055473904</title>
<ellipse fill="#bdecb6" stroke="#bdecb6" cx="59.57" cy="-347.02" rx="59.57" ry="50.2"/>
<text xml:space="preserve" text-anchor="middle" x="59.57" y="-365.22" font-family="Arial" font-size="14.00">LEAF</text>
<text xml:space="preserve" text-anchor="middle" x="59.57" y="-349.47" font-family="Arial" font-size="14.00">Class: 1</text>
<text xml:space="preserve" text-anchor="middle" x="59.57" y="-333.72" font-family="Arial" font-size="14.00">Samples: 2</text>
<text xml:space="preserve" text-anchor="middle" x="59.57" y="-317.97" font-family="Arial" font-size="14.00">[1:2]</text>
</g>
<!-- 140322055473584&#45;&gt;140322055473904 -->
<g id="edge6" class="edge">
<title>140322055473584&#45;&gt;140322055473904</title>
<path fill="none" stroke="black" d="M76.72,-467.58C74.34,-451 71.19,-429.04 68.24,-408.46"/>
<polygon fill="black" stroke="black" points="71.73,-408.11 66.84,-398.71 64.8,-409.11 71.73,-408.11"/>
<text xml:space="preserve" text-anchor="middle" x="80.45" y="-417.73" font-family="Arial" font-size="10.00">True</text>
</g>
<!-- 140322055476944 -->
<g id="node8" class="node">
<title>140322055476944</title>
<path fill="#add8e6" stroke="#add8e6" d="M224.2,-374.65C224.2,-374.65 148.95,-374.65 148.95,-374.65 142.95,-374.65 136.95,-368.65 136.95,-362.65 136.95,-362.65 136.95,-331.4 136.95,-331.4 136.95,-325.4 142.95,-319.4 148.95,-319.4 148.95,-319.4 224.2,-319.4 224.2,-319.4 230.2,-319.4 236.2,-325.4 236.2,-331.4 236.2,-331.4 236.2,-362.65 236.2,-362.65 236.2,-368.65 230.2,-374.65 224.2,-374.65"/>
<text xml:space="preserve" text-anchor="middle" x="186.57" y="-357.35" font-family="Arial" font-size="14.00">SUB &lt;= 5.25</text>
<text xml:space="preserve" text-anchor="middle" x="186.57" y="-341.6" font-family="Arial" font-size="14.00">GR: 0.1345</text>
<text xml:space="preserve" text-anchor="middle" x="186.57" y="-325.85" font-family="Arial" font-size="14.00">Samples: 263</text>
</g>
<!-- 140322055473584&#45;&gt;140322055476944 -->
<g id="edge7" class="edge">
<title>140322055473584&#45;&gt;140322055476944</title>
<path fill="none" stroke="black" d="M100.02,-467.58C117.05,-444.05 141.94,-409.67 160.66,-383.81"/>
<polygon fill="black" stroke="black" points="163.34,-386.08 166.37,-375.93 157.67,-381.98 163.34,-386.08"/>
<text xml:space="preserve" text-anchor="middle" x="148.75" y="-417.73" font-family="Arial" font-size="10.00">False</text>
</g>
<!-- 140322055477264 -->
<g id="node9" class="node">
<title>140322055477264</title>
<ellipse fill="#bdecb6" stroke="#bdecb6" cx="136.57" cy="-198.61" rx="59.57" ry="50.2"/>
<text xml:space="preserve" text-anchor="middle" x="136.57" y="-216.81" font-family="Arial" font-size="14.00">LEAF</text>
<text xml:space="preserve" text-anchor="middle" x="136.57" y="-201.06" font-family="Arial" font-size="14.00">Class: 1</text>
<text xml:space="preserve" text-anchor="middle" x="136.57" y="-185.31" font-family="Arial" font-size="14.00">Samples: 1</text>
<text xml:space="preserve" text-anchor="middle" x="136.57" y="-169.56" font-family="Arial" font-size="14.00">[1:1]</text>
</g>
<!-- 140322055476944&#45;&gt;140322055477264 -->
<g id="edge8" class="edge">
<title>140322055476944&#45;&gt;140322055477264</title>
<path fill="none" stroke="black" d="M177.4,-319.17C171.57,-302.09 163.78,-279.28 156.57,-258.17"/>
<polygon fill="black" stroke="black" points="159.9,-257.09 153.36,-248.76 153.28,-259.36 159.9,-257.09"/>
<text xml:space="preserve" text-anchor="middle" x="172.82" y="-269.32" font-family="Arial" font-size="10.00">True</text>
</g>
<!-- 140322055478704 -->
<g id="node10" class="node">
<title>140322055478704</title>
<path fill="#add8e6" stroke="#add8e6" d="M361.2,-226.24C361.2,-226.24 225.95,-226.24 225.95,-226.24 219.95,-226.24 213.95,-220.24 213.95,-214.24 213.95,-214.24 213.95,-182.99 213.95,-182.99 213.95,-176.99 219.95,-170.99 225.95,-170.99 225.95,-170.99 361.2,-170.99 361.2,-170.99 367.2,-170.99 373.2,-176.99 373.2,-182.99 373.2,-182.99 373.2,-214.24 373.2,-214.24 373.2,-220.24 367.2,-226.24 361.2,-226.24"/>
<text xml:space="preserve" text-anchor="middle" x="293.57" y="-208.94" font-family="Arial" font-size="14.00">NC_incomplete &lt;= 0.50</text>
<text xml:space="preserve" text-anchor="middle" x="293.57" y="-193.19" font-family="Arial" font-size="14.00">GR: 0.1354</text>
<text xml:space="preserve" text-anchor="middle" x="293.57" y="-177.44" font-family="Arial" font-size="14.00">Samples: 262</text>
</g>
<!-- 140322055476944&#45;&gt;140322055478704 -->
<g id="edge9" class="edge">
<title>140322055476944&#45;&gt;140322055478704</title>
<path fill="none" stroke="black" d="M206.2,-319.17C223.39,-295.64 248.52,-261.26 267.42,-235.4"/>
<polygon fill="black" stroke="black" points="270.1,-237.66 273.18,-227.52 264.45,-233.53 270.1,-237.66"/>
<text xml:space="preserve" text-anchor="middle" x="255.28" y="-269.32" font-family="Arial" font-size="10.00">False</text>
</g>
<!-- 140322055480624 -->
<g id="node11" class="node">
<title>140322055480624</title>
<ellipse fill="#bdecb6" stroke="#bdecb6" cx="219.57" cy="-50.2" rx="70.18" ry="50.2"/>
<text xml:space="preserve" text-anchor="middle" x="219.57" y="-68.4" font-family="Arial" font-size="14.00">LEAF</text>
<text xml:space="preserve" text-anchor="middle" x="219.57" y="-52.65" font-family="Arial" font-size="14.00">Class: 0</text>
<text xml:space="preserve" text-anchor="middle" x="219.57" y="-36.9" font-family="Arial" font-size="14.00">Samples: 261</text>
<text xml:space="preserve" text-anchor="middle" x="219.57" y="-21.15" font-family="Arial" font-size="14.00">[1:107, 0:154]</text>
</g>
<!-- 140322055478704&#45;&gt;140322055480624 -->
<g id="edge10" class="edge">
<title>140322055478704&#45;&gt;140322055480624</title>
<path fill="none" stroke="black" d="M280,-170.76C271.1,-153.16 259.14,-129.48 248.2,-107.84"/>
<polygon fill="black" stroke="black" points="251.41,-106.44 243.78,-99.1 245.17,-109.6 251.41,-106.44"/>
<text xml:space="preserve" text-anchor="middle" x="268.54" y="-120.91" font-family="Arial" font-size="10.00">True</text>
</g>
<!-- 140322055478544 -->
<g id="node12" class="node">
<title>140322055478544</title>
<ellipse fill="#bdecb6" stroke="#bdecb6" cx="367.57" cy="-50.2" rx="59.57" ry="50.2"/>
<text xml:space="preserve" text-anchor="middle" x="367.57" y="-68.4" font-family="Arial" font-size="14.00">LEAF</text>
<text xml:space="preserve" text-anchor="middle" x="367.57" y="-52.65" font-family="Arial" font-size="14.00">Class: 1</text>
<text xml:space="preserve" text-anchor="middle" x="367.57" y="-36.9" font-family="Arial" font-size="14.00">Samples: 1</text>
<text xml:space="preserve" text-anchor="middle" x="367.57" y="-21.15" font-family="Arial" font-size="14.00">[1:1]</text>
</g>
<!-- 140322055478704&#45;&gt;140322055478544 -->
<g id="edge11" class="edge">
<title>140322055478704&#45;&gt;140322055478544</title>
<path fill="none" stroke="black" d="M307.15,-170.76C316.15,-152.94 328.3,-128.9 339.35,-107.05"/>
<polygon fill="black" stroke="black" points="342.42,-108.73 343.81,-98.22 336.18,-105.57 342.42,-108.73"/>
<text xml:space="preserve" text-anchor="middle" x="344.79" y="-120.91" font-family="Arial" font-size="10.00">False</text>
</g>
</g>
</svg>
